<svg width="122" height="134" viewBox="0 0 122 134" fill="none" xmlns="http://www.w3.org/2000/svg">
<path d="M20.4 77.4L20.6 71.8L50.7 42.6C52.8333 40.5333 53.6667 38.8 53.2 37.4C52.8 36 51.2333 35.2333 48.5 35.1L46.4 35V32H72V35C70.3333 35.1333 68.7333 35.4333 67.2 35.9C65.7333 36.3667 64.1667 37.1333 62.5 38.2C60.9 39.2667 59.0333 40.8 56.9 42.8L20.4 77.4ZM42.8 102V99L46.1 98.7C48.1667 98.5 49.3333 97.6333 49.6 96.1C49.9333 94.5 49.3333 92.6333 47.8 90.5L30.4 66.2L37.2 60.8L59.6 91.8C61.4667 94.3333 63.3 96.1 65.1 97.1C66.9667 98.1 69.2667 98.7333 72 99V102H42.8ZM3 102V99L7.1 98.6C9.3 98.4 10.8333 97.8 11.7 96.8C12.5667 95.8 13 94.1333 13 91.8V42.2C13 39.8667 12.5667 38.2 11.7 37.2C10.8333 36.2 9.3 35.6 7.1 35.4L3 35V32H32.4V35L28.3 35.3C26.1667 35.4333 24.6333 36.0333 23.7 37.1C22.8333 38.1 22.4 39.8 22.4 42.2V91.8C22.4 94.2 22.8667 95.9333 23.8 97C24.8 98 26.6333 98.5667 29.3 98.7L33.4 99V102H3Z" fill="white"/>
<path d="M67 102V99L71.1 98.6C73.3667 98.3333 74.9 97.7 75.7 96.7C76.5667 95.7 77 94.0667 77 91.8V42.2C77 39.8667 76.5667 38.2333 75.7 37.3C74.9 36.3 73.3667 35.6667 71.1 35.4L67 35V32H102C105.2 32 107.867 31.9667 110 31.9C112.2 31.7667 114.233 31.6 116.1 31.4L117.5 47.6H114.5C113.567 43.2 112.133 40.1667 110.2 38.5C108.267 36.8333 105.233 36 101.1 36H86.4V65.6H106.4C108.733 65.6 110.367 65.1333 111.3 64.2C112.3 63.2667 112.867 61.6 113 59.2L113.2 56.1H116.2V78.9H113.2L113.1 74.9C113.033 73.0333 112.467 71.7 111.4 70.9C110.4 70.0333 108.733 69.6 106.4 69.6H86.4V90.9C86.4 93.3667 86.8333 95.1667 87.7 96.3C88.6333 97.4333 90.1667 98.1333 92.3 98.4L97.4 99V102H67Z" fill="white"/>
<path d="M73.3716 79.9097L73.3877 81.5854L67.388 81.6429C67.2708 81.644 67.1616 81.6685 67.0605 81.7163C66.9594 81.7602 66.8721 81.8216 66.7986 81.9005C66.7212 81.9754 66.6615 82.0639 66.6195 82.1659C66.5775 82.2678 66.5571 82.3774 66.5582 82.4946C66.5593 82.6118 66.5818 82.7209 66.6258 82.8221C66.6697 82.9232 66.7311 83.0125 66.81 83.0899C66.8849 83.1634 66.9734 83.2211 67.0753 83.2631C67.1773 83.3051 67.2869 83.3255 67.4041 83.3244L73.4038 83.267L73.4199 84.9485L67.4202 85.006C67.303 85.0071 67.1938 85.0296 67.0927 85.0736C66.9915 85.1175 66.9042 85.1789 66.8307 85.2577C66.7533 85.3327 66.6936 85.4212 66.6516 85.5231C66.6096 85.6251 66.5892 85.7347 66.5903 85.8519C66.5915 85.969 66.614 86.0782 66.6579 86.1794C66.7019 86.2805 66.7633 86.3698 66.8421 86.4471C66.9171 86.5206 67.0055 86.5784 67.1075 86.6204C67.2094 86.6624 67.319 86.6828 67.4362 86.6817L73.4359 86.6243L73.452 88.3058L67.4523 88.3633C67.1047 88.3666 66.7779 88.3053 66.472 88.1793C66.1621 88.0494 65.8928 87.8723 65.6641 87.6479C65.4315 87.4197 65.2492 87.1538 65.1174 86.8504C64.9816 86.5431 64.9121 86.2156 64.9088 85.868C64.9058 85.5555 64.9595 85.2542 65.07 84.964C65.1766 84.6739 65.3343 84.4126 65.543 84.1802C65.3299 83.9517 65.1673 83.6955 65.0552 83.4114C64.9391 83.1234 64.8796 82.8232 64.8766 82.5107C64.8733 82.163 64.9366 81.8363 65.0665 81.5303C65.1924 81.2205 65.3695 80.9512 65.5978 80.7225C65.8222 80.4898 66.088 80.3076 66.3954 80.1757C66.6988 80.04 67.0243 79.9705 67.3719 79.9672L73.3716 79.9097ZM65.3607 76.7636C65.5091 76.7622 65.6481 76.7901 65.7775 76.8475C65.907 76.901 66.021 76.976 66.1196 77.0728C66.2142 77.1695 66.2915 77.284 66.3514 77.4163C66.4073 77.5446 66.436 77.683 66.4374 77.8315C66.4388 77.9799 66.4128 78.1208 66.3594 78.2541C66.302 78.3836 66.2269 78.4976 66.1341 78.5961C66.0374 78.6908 65.9248 78.7681 65.7965 78.8279C65.6681 78.8838 65.5297 78.9125 65.3813 78.9139C65.2368 78.9153 65.0998 78.8892 64.9704 78.8358C64.837 78.7785 64.723 78.7034 64.6283 78.6105C64.5298 78.5138 64.4525 78.4013 64.3966 78.2729C64.3367 78.1407 64.3061 78.0003 64.3047 77.8519C64.3032 77.7035 64.3312 77.5645 64.3886 77.435C64.442 77.3017 64.517 77.1858 64.6138 77.0872C64.7066 76.9886 64.8191 76.9114 64.9514 76.8554C65.0797 76.7956 65.2162 76.765 65.3607 76.7636ZM73.3434 76.9626L73.3589 78.5738L67.0838 78.6339L67.0683 77.0227L73.3434 76.9626ZM73.3164 74.1385L73.3317 75.738L67.0566 75.7981L67.0529 75.4114L67.6572 74.8783C67.4204 74.6227 67.2379 74.3334 67.1098 74.0104C66.9778 73.6835 66.91 73.3424 66.9066 72.9869C66.903 72.6041 66.9737 72.2421 67.1189 71.9008C67.2602 71.5596 67.4585 71.2608 67.7139 71.0045C67.9653 70.7482 68.2622 70.5461 68.6046 70.3983C68.943 70.2466 69.3056 70.1689 69.6923 70.1652L73.278 70.1309L73.2933 71.7304L69.7076 71.7647C69.5435 71.7663 69.3895 71.799 69.2456 71.8629C69.0978 71.9268 68.9697 72.014 68.8614 72.1244C68.753 72.2348 68.6683 72.3626 68.6072 72.5077C68.5461 72.6528 68.5163 72.8074 68.5179 72.9715C68.5195 73.1394 68.5523 73.2973 68.6162 73.4452C68.6801 73.593 68.7673 73.7211 68.8777 73.8294C68.9881 73.9377 69.1178 74.0224 69.2669 74.0835C69.412 74.1446 69.5666 74.1744 69.7306 74.1728L73.3164 74.1385ZM65.2689 67.1781C65.4174 67.1767 65.5563 67.2047 65.6858 67.262C65.8152 67.3155 65.9292 67.3905 66.0278 67.4873C66.1225 67.584 66.1997 67.6985 66.2596 67.8308C66.3155 67.9591 66.3442 68.0975 66.3456 68.246C66.347 68.3944 66.321 68.5353 66.2676 68.6686C66.2103 68.7981 66.1352 68.9121 66.0424 69.0106C65.9456 69.1053 65.8331 69.1826 65.7047 69.2424C65.5764 69.2983 65.438 69.327 65.2895 69.3284C65.145 69.3298 65.008 69.3037 64.8786 69.2503C64.7452 69.193 64.6312 69.1179 64.5366 69.025C64.438 68.9283 64.3607 68.8158 64.3048 68.6874C64.245 68.5552 64.2143 68.4148 64.2129 68.2664C64.2115 68.118 64.2394 67.979 64.2968 67.8496C64.3502 67.7162 64.4253 67.6003 64.522 67.5017C64.6148 67.4031 64.7274 67.3259 64.8596 67.2699C64.988 67.2101 65.1244 67.1795 65.2689 67.1781ZM73.2517 67.3771L73.2671 68.9883L66.992 69.0484L66.9766 67.4372L73.2517 67.3771ZM70.6224 55.9232C70.97 55.9199 71.2968 55.9832 71.6028 56.1131C71.9087 56.243 72.178 56.422 72.4107 56.6503C72.6394 56.8747 72.8216 57.1385 72.9573 57.442C73.0931 57.7454 73.1626 58.0709 73.1659 58.4185L73.2061 62.6195L64.8042 62.6999L64.764 58.4989C64.7606 58.1513 64.8239 57.8245 64.9538 57.5186C65.0837 57.2126 65.2628 56.9453 65.4911 56.7165C65.7154 56.4839 65.9793 56.2997 66.2827 56.164C66.5861 56.0283 66.9116 55.9587 67.2593 55.9554C67.4155 55.9539 67.5759 55.9739 67.7403 56.0153C67.9048 56.0567 68.0636 56.1157 68.2166 56.1924C68.3697 56.269 68.5093 56.3614 68.6353 56.4696C68.7614 56.5778 68.866 56.6979 68.9493 56.8299C69.0222 56.6925 69.1226 56.5685 69.2505 56.4579C69.3744 56.3473 69.5122 56.2522 69.6638 56.1726C69.8154 56.0931 69.975 56.0329 70.1426 55.9923C70.3062 55.9477 70.4661 55.9247 70.6224 55.9232ZM71.5085 60.954L71.4844 58.4346C71.4832 58.3174 71.4607 58.2083 71.4168 58.1071C71.3728 58.006 71.3134 57.9186 71.2385 57.8451C71.1596 57.7678 71.0692 57.7081 70.9672 57.6661C70.8652 57.6241 70.7557 57.6037 70.6385 57.6048C70.5213 57.6059 70.4121 57.6284 70.311 57.6724C70.2098 57.7163 70.1225 57.7777 70.0491 57.8565C69.9717 57.9315 69.912 58.02 69.87 58.1219C69.828 58.2239 69.8075 58.3335 69.8086 58.4507L69.8328 60.9701L71.5085 60.954ZM68.1512 60.9862L68.1271 58.4668C68.126 58.3496 68.1034 58.2404 68.0595 58.1393C68.0156 58.0381 67.9561 57.9508 67.8812 57.8773C67.8023 57.7999 67.7119 57.7402 67.6099 57.6982C67.5041 57.6563 67.3925 57.6359 67.2754 57.637C67.1582 57.6381 67.049 57.6606 66.9479 57.7046C66.8467 57.7485 66.7594 57.8099 66.6859 57.8887C66.6085 57.9637 66.5488 58.0522 66.5068 58.1541C66.4648 58.2561 66.4444 58.3657 66.4455 58.4828L66.4696 61.0023L68.1512 60.9862ZM72.3547 50.1935C72.4731 50.3213 72.5858 50.4589 72.6927 50.6063C72.7956 50.7498 72.8869 50.9013 72.9666 51.0607C73.0423 51.2202 73.1025 51.3856 73.1471 51.5571C73.1956 51.7246 73.2207 51.8962 73.2224 52.072C73.2261 52.4587 73.1612 52.8226 73.0277 53.1637C72.8943 53.5049 72.7038 53.8055 72.4562 54.0657C72.2048 54.3221 71.9001 54.5262 71.5421 54.678C71.1803 54.826 70.7747 54.9022 70.3255 54.9065L66.8569 54.9397L66.8417 53.346L70.3103 53.3128C70.5212 53.3108 70.7103 53.2777 70.8777 53.2136C71.0411 53.1456 71.1789 53.0564 71.2912 52.946C71.4034 52.8355 71.4881 52.7078 71.5453 52.5627C71.6025 52.4137 71.6303 52.2552 71.6287 52.0872C71.6271 51.9232 71.5885 51.7692 71.5129 51.6254C71.4334 51.4778 71.3306 51.3498 71.2045 51.2416C71.0785 51.1335 70.9371 51.0489 70.7802 50.9879C70.6195 50.9269 70.4551 50.8972 70.2872 50.8989L66.8186 50.9321L66.8033 49.3325L73.0784 49.2725L73.0821 49.6592L72.3547 50.1935ZM69.8307 43.6138C69.6119 43.6159 69.4014 43.6609 69.1991 43.7488C68.9929 43.8328 68.8124 43.9478 68.6575 44.0938C68.4987 44.2399 68.3734 44.411 68.2815 44.6072C68.1857 44.7995 68.1388 45.0051 68.1409 45.2238C68.143 45.4426 68.1821 45.6492 68.2582 45.8438C68.3343 46.0345 68.4452 46.2014 68.5911 46.3446C68.737 46.4838 68.9178 46.5934 69.1334 46.6734C69.3451 46.7534 69.5877 46.7921 69.8611 46.7895C70.1228 46.787 70.3587 46.7437 70.5689 46.6596C70.7751 46.5756 70.9518 46.4626 71.0988 46.3206C71.2459 46.1746 71.3595 46.0056 71.4397 45.8134C71.516 45.6173 71.553 45.4099 71.5509 45.1912C71.5488 44.9724 71.5 44.7678 71.4044 44.5773C71.3049 44.383 71.1763 44.2143 71.0187 44.0712C70.8572 43.9282 70.6745 43.8167 70.4706 43.7366C70.2627 43.6527 70.0494 43.6117 69.8307 43.6138ZM72.2175 41.9796C72.6589 41.9754 73.0737 42.0554 73.462 42.2196C73.8503 42.3839 74.1904 42.6111 74.4823 42.9013C74.7741 43.1876 75.0059 43.5252 75.1776 43.9142C75.3492 44.2993 75.4372 44.7126 75.4414 45.1539L75.4374 45.9567L73.8378 45.9721L73.842 45.181C73.8396 44.931 73.8043 44.7184 73.7362 44.5433C73.6721 44.3681 73.5828 44.2205 73.4683 44.1005C73.3578 43.9805 73.2299 43.886 73.0847 43.8171C72.9395 43.7442 72.7866 43.6871 72.626 43.6457C72.7282 43.7072 72.813 43.7962 72.8806 43.9128C72.9442 44.0294 72.9962 44.1597 73.0367 44.3039C73.081 44.4441 73.1117 44.5922 73.1288 44.7483C73.1459 44.9005 73.1551 45.043 73.1563 45.1758C73.1606 45.6172 73.0884 46.0339 72.9398 46.426C72.7911 46.8141 72.5776 47.1561 72.2992 47.4517C72.0168 47.7435 71.6713 47.9753 71.2628 48.1472C70.8543 48.3191 70.3922 48.4075 69.8766 48.4124C69.404 48.417 68.9637 48.3372 68.5559 48.1731C68.1481 48.009 67.7943 47.7839 67.4947 47.4977C67.195 47.2076 66.9594 46.87 66.7877 46.4849C66.616 46.0959 66.5281 45.6807 66.5238 45.2393C66.5219 45.0362 66.5453 44.8348 66.5942 44.6351C66.6431 44.4354 66.7115 44.2414 66.7996 44.053C66.8876 43.8647 66.9914 43.6859 67.1109 43.5168C67.2303 43.3438 67.3596 43.1824 67.4988 43.0326L66.7488 42.4187L66.7451 42.032L72.2175 41.9796Z" fill="white"/>
</svg>
